<svg width="162" height="146" viewBox="0 0 162 146" fill="none" xmlns="http://www.w3.org/2000/svg">
<path d="M139.927 102.379C137.131 104.382 134.994 106.245 131.594 107.265C124.397 109.424 116.714 107.961 109.674 106.059C95.2984 102.174 82.3021 94.8794 67.5166 92.3439C55.4529 90.2752 43.0546 90.5594 31.002 92.6349C24.9442 93.6782 18.2374 95.5229 12.9497 98.7874C8.96432 101.248 12.622 106.284 15.5945 102.911C22.2074 95.4077 27.899 87.0044 33.5968 78.687C36.7614 74.0676 39.3132 67.6382 45.8387 67.774C47.0912 67.8001 49.0894 67.9913 50.2451 68.5818C52.0901 69.5247 51.8209 72.4468 52.8982 73.9649C53.4842 74.7905 55.6436 67.2715 55.7106 66.4704C55.9612 63.4748 55.6149 60.5999 54.0381 58C52.5091 55.4789 50.7515 55.7441 48.5241 57.7442C44.4082 61.4401 41.058 66.3217 38.3486 71.1052C37.0256 73.4409 35.7155 75.8929 36.4219 78.5953C37.1846 81.5133 38.9165 83.8811 41.6879 85.1125C43.499 85.9172 44.9494 85.6361 46.7885 84.7763C51.3383 82.6492 55.4641 79.4168 59.0786 75.9747C63.073 72.1708 66.563 67.4747 69.5869 62.8508C70.8691 60.89 75.2701 63.6334 76.6617 64.2546C83.4158 67.2695 87.9944 72.3532 93.4586 77.1426C95.4002 78.8444 97.4442 80.0502 98.8675 82.1761C101.829 86.599 97.2957 71.5633 95.4038 66.5881C95.2827 66.2699 95.1931 65.3129 94.9737 66.1064C93.7919 70.3799 92.7007 74.6728 91.4812 78.9377C89.0211 87.5408 86.276 96.0176 83.461 104.504C82.0615 108.723 88.6156 96.7804 88.942 92.3475C89.1129 90.0256 86.235 82.0794 83.3929 81.8656C80.806 81.6711 77.8648 88.1834 76.9766 89.8671C76.6074 90.5671 76.2592 91.2791 75.9449 92.0054C75.5913 92.8226 75.4867 93.3358 76.2141 92.2892C78.1052 89.5685 79.6057 86.5602 80.9072 83.5228C82.1779 80.5573 83.1746 77.4911 84.307 74.4734C84.8231 73.098 84.8207 71.8068 86.5144 72.878C96.2445 79.032 103.062 88.9017 109.678 98.0335C111.124 100.029 113.334 103.618 115.899 104.548C116.691 104.836 112.842 103.412 112.768 103.366C109.983 101.628 107.634 99.3314 105.283 97.0669C104.411 96.2268 102.133 94.6011 101.555 93.3644C100.939 92.0478 103.895 87.6265 104.118 87.1985C108.8 78.2038 113.468 69.2134 117.531 59.9134C120.599 52.8888 122.445 48.3017 124.485 41.1959C124.949 39.5794 125.281 37.927 125.618 36.2792C125.811 35.335 125.192 33.7676 126.094 33.4276C126.299 33.3502 126.12 33.8661 126.111 34.0853C126.06 35.4531 125.863 37.5588 125.732 38.7866C125.45 41.4155 125.119 44.0443 124.474 46.6126C123.541 50.3264 119.921 50.6482 116.386 50.5644C107.778 50.3605 99.2863 46.6937 91.0909 44.364C88.2162 43.5469 84.4743 41.8201 81.3848 42.2614C78.056 42.7369 75.1335 46.0116 73.1492 48.4163C69.7285 52.5618 65.4497 60.1942 67.3618 65.9054C70.3585 74.8563 82.4927 65.8214 86.2382 62.6111C89.5285 59.7908 91.7813 56.348 93.1928 52.2923C94.1885 49.4314 90.8896 47.7453 88.7028 49.4068C83.4737 53.3801 80.0679 60.6001 79.4252 67.0254C78.8543 72.7332 82.7327 77.058 87.2966 79.9552C89.1178 81.1113 91.6941 82.1958 93.8957 82.3496C95.0376 82.4294 91.737 81.5857 90.6457 81.2402C86.6855 79.9865 82.6777 78.8928 78.7319 77.592C64.3859 72.8626 50.7354 66.4217 36.7159 60.8578C32.5356 59.1988 27.4254 56.9495 22.7567 57.9099C18.1092 58.866 14.9489 62.9338 13.0134 66.9377C10.1644 72.8314 9.17518 80.5216 13.0455 86.2126C16.2464 90.9192 21.9078 92.4289 27.2207 93.3103C39.2778 95.3104 46.8883 82.5773 50.3974 72.7783C53.8144 63.2367 55.4185 53.0277 56.1501 42.9462C56.1597 42.8147 56.6638 37.9625 56.4544 39.7995C54.9335 53.1378 56.9167 67.3138 58.467 80.5454C59.367 88.226 61.1729 95.5169 63.079 102.971" stroke="#555555" stroke-linecap="round" stroke-linejoin="round"/>
</svg>
